<svg data-v-0dd9719b="" version="1.0" xmlns="http://www.w3.org/2000/svg" xmlns:xlink="http://www.w3.org/1999/xlink" width="100%" height="100%" viewBox="0 0 340.000000 250.000000" preserveAspectRatio="xMidYMid meet" color-interpolation-filters="sRGB" style="margin: auto;"> <rect data-v-0dd9719b="" x="0" y="0" width="100%" height="100%" fill="#fff" fill-opacity="1" class="background"></rect> <rect data-v-0dd9719b="" x="0" y="0" width="100%" height="100%" fill="url(#watermark)" fill-opacity="1" class="watermarklayer"></rect> <g data-v-0dd9719b="" fill="#0b56a6" class="icon-text-wrapper icon-svg-group iconsvg" transform="translate(47.83000183105469,98.21213340759277)"><g class="iconsvg-imagesvg" transform="translate(0,0)"><g><rect fill="#0b56a6" fill-opacity="0" stroke-width="2" x="0" y="0" width="60" height="53.57573376432035" class="image-rect"></rect> <svg x="0" y="0" width="60" height="53.57573376432035" filtersec="colorsb9492804515" class="image-svg-svg primary" style="overflow: visible;"><svg xmlns="http://www.w3.org/2000/svg" viewBox="0 -0.011434555053710938 424.6799621582031 379.20831298828125"><path d="M212.33 145.28a44.31 44.31 0 1 1-44.29 44.33 44.32 44.32 0 0 1 44.29-44.33z" fill="#da251d" fill-rule="evenodd"></path><path d="M307.2 25.47l-.05-.05c-14-8.06-37.41 1.17-64 22.66-29.28 23.64-60.88 61.71-87.94 108.54l-.07.14c-27 46.79-44.1 93.16-49.95 130.28-5.32 33.74-1.6 58.65 12.38 66.73 14 8.07 37.4-1.18 64-22.67 29.25-23.64 60.89-61.71 87.93-108.54 27-46.84 44.17-93.23 50-130.42 5.32-33.7 1.66-58.58-12.28-66.67zm-78.27 4.88c32.56-26.34 63.78-37 86.55-26.17h.27l2.72 1.56c23 13.28 30.27 46.66 23.47 89.87-6.14 39.06-23.69 87.23-51.25 135.57v.07l-1.57 2.72c-28.43 49.23-62 89.53-93.35 114.85-34 27.51-66.57 37.9-89.56 24.64-23-13.27-30.25-46.66-23.42-89.87 6.26-39.82 24.36-89 52.8-138.31v-.05c28.42-49.26 62-89.52 93.34-114.88z" fill="#0b56a6" fill-rule="evenodd"></path><path d="M401.86 189.61c0-16.17-19.69-31.82-51.49-44.08-35.08-13.48-83.86-21.85-138-21.85s-102.95 8.37-138 21.85c-31.88 12.26-51.58 27.91-51.58 44.08s19.68 31.81 51.5 44c35.07 13.5 83.85 21.85 138 21.85s103-8.35 138-21.85c31.8-12.23 51.49-27.89 51.49-44zm-43.39-65.28c40.91 15.76 66.21 38.72 66.21 65.28s-25.3 49.5-66.21 65.24c-37.65 14.49-89.34 23.45-146.14 23.45s-108.48-9-146.12-23.45C25.3 239.11 0 216.12 0 189.61s25.3-49.52 66.21-65.28c37.64-14.47 89.33-23.45 146.12-23.45s108.46 8.98 146.14 23.45z" fill="#0b56a6" fill-rule="evenodd"></path><path d="M307.1 353.77c14-8.08 17.7-33 12.38-66.73-5.84-37.12-23-83.49-49.93-130.28l-.09-.14c-27.05-46.83-58.66-84.87-87.91-108.54-26.57-21.47-50-30.72-64-22.66l-.82.49c-13.32 8.52-16.79 33.14-11.56 66.23 5.85 37.19 23 83.58 50 130.42 27 46.83 58.68 84.9 88 108.54 26.54 21.49 50 30.74 63.92 22.67zm34.84-70.18c6.8 43.21-.46 76.6-23.42 89.87s-55.58 2.89-89.61-24.64c-31.32-25.32-64.92-65.62-93.36-114.85l-1.57-2.72v-.07c-27.53-48.34-45.09-96.47-51.19-135.57-6.83-43.19.47-76.57 23.44-89.85.38-.22.77-.42 1.16-.63l1.59-.93h.24c22.78-10.8 54-.17 86.58 26.17 31.32 25.32 65 65.62 93.38 114.86v.05c28.39 49.29 46.5 98.49 52.76 138.31z" fill="#0b56a6" fill-rule="evenodd"></path></svg></svg> <!----></g></g> <g transform="translate(67,0.09661483764648438)"><g data-gra="path-name" fill-rule="" class="tp-name iconsvg-namesvg" transform="translate(0,0)"><g transform="scale(1)"><g><path d="M29.03-21.56L29.03-21.56Q28.92-21.27 28.76-21.03L28.76-21.03 25.84-15.73Q25.36-14.9 24.9-14.61L24.9-14.61Q24.46-14.35 23.47-14.35L23.47-14.35 16.24-14.35Q14.99-14.35 14.99-15.31L14.99-15.31Q14.99-15.6 15.23-16.06L15.23-16.06 18.08-21.27Q18.44-21.88 18.44-22.26L18.44-22.26Q18.44-22.76 17.95-23.42L17.95-23.42 16.52-25.42Q16.24-25.82 16.24-26.1L16.24-26.1Q16.24-27 17.34-27L17.34-27 24.02-27Q25.14-27 25.64-26.76L25.64-26.76Q26.15-26.52 26.87-25.66L26.87-25.66 28.54-23.6Q28.81-23.27 29-22.92L29-22.92Q29.2-23.27 29.47-23.62L29.47-23.62 30.83-25.49Q31.25-26.04 31.25-26.56L31.25-26.56Q31.25-28.04 29.4-28.04L29.4-28.04 15.91-28.04Q14.66-28.04 14.66-29.03L14.66-29.03Q14.66-29.31 14.9-29.75L14.9-29.75 16.41-32.52Q16.88-33.35 17.34-33.64L17.34-33.64Q17.8-33.9 18.76-33.9L18.76-33.9 26.24-33.9Q27.05-33.9 27.05-33.27L27.05-33.27Q27.05-33.13 26.96-32.94L26.96-32.94Q26.87-32.7 26.87-32.56L26.87-32.56Q26.87-31.95 27.71-31.95L27.71-31.95 41.66-31.95Q43.48-31.95 43.48-30.34L43.48-30.34 43.48-29.9Q43.48-28.89 43.13-28.06L43.13-28.06Q42.93-27.62 42.21-26.63L42.21-26.63 39.97-23.51Q39.48-22.85 39.48-22.35L39.48-22.35Q39.48-21.95 39.86-21.31L39.86-21.31 42.93-16.06Q43.2-15.62 43.2-15.36L43.2-15.36Q43.2-14.37 41.97-14.37L41.97-14.37 34.8-14.37Q33.84-14.37 33.35-14.63L33.35-14.63Q32.89-14.9 32.39-15.75L32.39-15.75 29.31-21.01Q29.18-21.25 29.03-21.56ZM15.42 2.68L15.42 2.68 15.42-11.4Q15.42-13.23 17.27-13.23L17.27-13.23 41.29-13.23Q43.11-13.23 43.11-11.4L43.11-11.4 43.11 2.68Q43.11 4.5 41.29 4.5L41.29 4.5 17.27 4.5Q15.42 4.5 15.42 2.68ZM27.16 0.62L27.16 0.62 31.4 0.62Q33.22 0.62 33.22-1.23L33.22-1.23 33.22-7.49Q33.22-9.34 31.4-9.34L31.4-9.34 27.16-9.34Q25.33-9.34 25.33-7.49L25.33-7.49 25.33-1.23Q25.33 0.62 27.16 0.62ZM12.22-24.74L12.22-24.74 6.55-24.74Q5.63-24.74 5.21-25.05L5.21-25.05Q4.77-25.36 4.44-26.21L4.44-26.21 2.64-31.14Q2.48-31.57 2.48-31.84L2.48-31.84Q2.48-32.94 3.91-32.94L3.91-32.94 9.29-32.94Q10.22-32.94 10.66-32.63L10.66-32.63Q11.1-32.34 11.45-31.49L11.45-31.49 13.43-26.54Q13.6-26.1 13.6-25.82L13.6-25.82Q13.6-24.74 12.22-24.74ZM12.44-14.77L12.44-14.77 6.92-14.77Q6.02-14.77 5.58-15.1L5.58-15.1Q5.14-15.42 4.88-16.28L4.88-16.28 3.25-21.69Q3.12-22.13 3.12-22.37L3.12-22.37Q3.12-23.51 4.61-23.51L4.61-23.51 9.84-23.51Q10.77-23.51 11.21-23.2L11.21-23.2Q11.65-22.87 11.93-22.02L11.93-22.02 13.75-16.59Q13.91-16.13 13.91-15.89L13.91-15.89Q13.91-14.77 12.44-14.77ZM13.73-11.29L13.73-11.29 10.66 2.86Q10.46 3.74 10.04 4.09L10.04 4.09Q9.6 4.44 8.7 4.44L8.7 4.44 3.05 4.44Q1.52 4.44 1.52 3.23L1.52 3.23Q1.52 2.97 1.6 2.59L1.6 2.59 5.08-11.58Q5.3-12.46 5.71-12.81L5.71-12.81Q6.15-13.14 7.05-13.14L7.05-13.14 12.24-13.14Q13.8-13.14 13.8-11.91L13.8-11.91Q13.8-11.62 13.73-11.29ZM65.85 2.53L65.85 2.53 65.85-31.14Q65.85-32.96 67.7-32.96L67.7-32.96 86.18-32.96Q88-32.96 88-31.14L88-31.14 88 2.53Q88 4.35 86.18 4.35L86.18 4.35 67.7 4.35Q65.85 4.35 65.85 2.53ZM76.53 0.15L76.53 0.15 77.32 0.15Q78.99 0.15 78.99-1.69L78.99-1.69 78.99-12.79Q78.99-14.63 77.32-14.63L77.32-14.63 76.55-14.63Q74.86-14.63 74.86-12.79L74.86-12.79 74.86-1.69Q74.86 0.15 76.53 0.15ZM74.86-26.94L74.86-26.94 74.86-20.37Q74.86-18.52 76.53-18.52L76.53-18.52 77.32-18.52Q78.99-18.52 78.99-20.37L78.99-20.37 78.99-26.94Q78.99-28.76 77.32-28.76L77.32-28.76 76.55-28.76Q74.86-28.76 74.86-26.94ZM64.89-31.31L64.89-31.31 64.89-30.89Q64.89-28.78 64.25-25.69L64.25-25.69 63.04-19.93Q63-19.69 63-19.49L63-19.49Q63-18.76 63.9-18.65L63.9-18.65Q64.93-18.52 64.89-17.62L64.89-17.62Q64.89-17.49 64.86-17.34L64.86-17.34 63.06 1.74Q62.91 3.43 61.19 3.43L61.19 3.43 57.9 3.43Q56.18 3.43 56.18 1.96L56.18 1.96Q56.18 1.78 56.21 1.58L56.21 1.58 57.68-14.02Q57.7-14.13 57.7-14.19L57.7-14.19Q57.7-14.9 56.98-14.96L56.98-14.96Q56.18-15.07 56.18-15.78L56.18-15.78 56.18-16.24Q56.18-17.51 56.69-20.17L56.69-20.17 57.96-26.87Q58.03-27.2 58.03-27.4L58.03-27.4Q58.03-27.8 57.77-28.1L57.77-28.1Q57.41-28.52 56.84-28.52L56.84-28.52Q55.44-28.52 55.44-26.78L55.44-26.78 55.44 2.68Q55.44 4.5 53.59 4.5L53.59 4.5 49.17 4.5Q47.33 4.5 47.33 2.68L47.33 2.68 47.33-31.2Q47.33-33.02 49.17-33.02L49.17-33.02 63.06-33.02Q64.89-33.02 64.89-31.31ZM116.92-28.81L116.92-28.81 114.08-28.81Q112.24-28.81 112.24-30.5L112.24-30.5 112.24-31.31Q112.24-33 114.08-33L114.08-33 132.01-33Q133.84-33 133.84-31.31L133.84-31.31 133.84-30.5Q133.84-28.81 132.01-28.81L132.01-28.81 127.71-28.81Q126.12-28.81 126.12-27.6L126.12-27.6Q126.12-26.74 127.18-26.74L127.18-26.74 131.44-26.74Q133.26-26.74 133.26-24.92L133.26-24.92 133.26-6.72Q133.26-4.9 131.44-4.9L131.44-4.9 127.29-4.9Q125.46-4.9 125.46-6.72L125.46-6.72 125.46-21.01Q125.46-22.85 123.64-22.85L123.64-22.85 122.34-22.85Q120.52-22.85 120.52-21.01L120.52-21.01 120.52-13.4Q120.52-11.58 122.3-11.58L122.3-11.58 123.31-11.58Q124.8-11.58 124.8-10.39L124.8-10.39Q124.8-10.11 124.72-9.73L124.72-9.73 121.42 2.97Q121.18 3.85 120.76 4.17L120.76 4.17Q120.32 4.5 119.42 4.5L119.42 4.5 115.14 4.5Q113.64 4.5 113.64 3.36L113.64 3.36Q113.64 3.05 113.75 2.66L113.75 2.66 115.4-3.1Q115.51-3.52 115.51-3.76L115.51-3.76Q115.51-4.31 115.05-4.66L115.05-4.66Q114.72-4.9 114.32-4.9L114.32-4.9 114.26-4.9Q112.72-4.9 112.72-6.72L112.72-6.72 112.72-24.92Q112.72-26.74 114.54-26.74L114.54-26.74 116.39-26.74Q117.97-26.74 117.97-27.95L117.97-27.95Q117.97-28.81 116.92-28.81ZM98.7 2.61L98.7 2.61 98.7-31.11Q98.7-32.94 100.55-32.94L100.55-32.94 102.44-32.94Q104.26-32.94 104.26-31.11L104.26-31.11 104.26 2.61Q104.26 4.46 102.44 4.46L102.44 4.46 100.55 4.46Q98.7 4.46 98.7 2.61ZM105.49 2.68L105.49 2.68 105.49-31.18Q105.49-33 107.31-33L107.31-33 109.36-33Q111.18-33 111.18-31.18L111.18-31.18 111.18 2.68Q111.18 4.53 109.36 4.53L109.36 4.53 107.31 4.53Q105.49 4.53 105.49 2.68ZM91.89 2.68L91.89 2.68 91.89-31.18Q91.89-33 93.71-33L93.71-33 95.76-33Q97.58-33 97.58-31.18L97.58-31.18 97.58 2.68Q97.58 4.53 95.76 4.53L95.76 4.53 93.71 4.53Q91.89 4.53 91.89 2.68ZM126.08-3.82L126.08-3.82 129.97-3.82Q130.87-3.82 131.31-3.49L131.31-3.49Q131.73-3.16 131.97-2.31L131.97-2.31 133.33 2.66Q133.44 3.05 133.44 3.34L133.44 3.34Q133.44 4.5 131.92 4.5L131.92 4.5 127.95 4.5Q127.05 4.5 126.63 4.17L126.63 4.17Q126.19 3.85 125.95 2.97L125.95 2.97 124.65-2Q124.54-2.42 124.54-2.66L124.54-2.66Q124.54-3.82 126.08-3.82ZM169.91-27.2L169.91-27.2 176.15-27.2Q177.98-27.2 177.98-25.38L177.98-25.38 177.98-21.53Q177.98-21.03 178.42-20.98L178.42-20.98Q178.86-20.94 178.86-20.46L178.86-20.46 178.86-17.62Q178.86-17.14 178.42-17.09L178.42-17.09Q177.98-17.03 177.98-16.55L177.98-16.55 177.98-12.17Q177.98-10.35 176.15-10.35L176.15-10.35 170.24-10.35Q168.73-10.35 168.73-9.12L168.73-9.12Q168.73-7.89 170.24-7.89L170.24-7.89 176.35-7.89Q178.18-7.89 178.18-6.28L178.18-6.28 178.18-5.89Q178.18-4.28 176.35-4.28L176.35-4.28 170.57-4.28Q168.73-4.28 168.73-2.48L168.73-2.48 168.73-1.3Q168.73 0.53 170.57 0.53L170.57 0.53 176.88 0.53Q178.7 0.53 178.7 2.18L178.7 2.18 178.7 2.77Q178.7 4.42 176.88 4.42L176.88 4.42 153.92 4.42Q152.09 4.42 152.09 2.59L152.09 2.59 152.09-7.08Q152.09-8.92 153.92-8.92L153.92-8.92 155.96-8.92Q157.79-8.92 157.79-7.08L157.79-7.08 157.79-0.68Q157.79 0.53 158.77 0.53L158.77 0.53Q159.74 0.53 159.74-0.68L159.74-0.68 159.74-8.53Q159.74-10.35 157.9-10.35L157.9-10.35 154.64-10.35Q152.82-10.35 152.82-11.95L152.82-11.95 152.82-12.35Q152.82-13.95 154.64-13.95L154.64-13.95 157.9-13.95Q159.74-13.95 159.74-15.47L159.74-15.47 159.74-15.56Q159.74-17.09 157.9-17.09L157.9-17.09 154.34-17.09Q152.51-17.09 152.51-18.74L152.51-18.74 152.51-19.34Q152.51-20.98 154.34-20.98L154.34-20.98 158.14-20.98Q159.74-20.98 159.74-22.28L159.74-22.28Q159.74-23.58 158.14-23.58L158.14-23.58 154.62-23.58Q152.8-23.58 152.8-25.18L152.8-25.18 152.8-25.6Q152.8-27.2 154.62-27.2L154.62-27.2 158.55-27.2Q159.74-27.2 159.74-28.19L159.74-28.19Q159.74-29.16 158.55-29.16L158.55-29.16 153.9-29.16Q152.07-29.16 152.07-30.81L152.07-30.81 152.07-31.4Q152.07-33.05 153.9-33.05L153.9-33.05 159.26-33.05Q159.7-33.05 159.74-33.44L159.74-33.44Q159.79-33.84 160.22-33.84L160.22-33.84 168.24-33.84Q168.68-33.84 168.73-33.44L168.73-33.44Q168.77-33.05 169.21-33.05L169.21-33.05 176.97-33.05Q178.79-33.05 178.79-31.4L178.79-31.4 178.79-30.81Q178.79-29.16 176.97-29.16L176.97-29.16 169.91-29.16Q168.73-29.16 168.73-28.17L168.73-28.17Q168.73-27.2 169.91-27.2ZM170.02-20.98L170.02-20.98 170.33-20.98Q170.93-20.98 171.3-21.36L171.3-21.36Q171.69-21.75 171.69-22.28L171.69-22.28Q171.69-22.81 171.3-23.2L171.3-23.2Q170.93-23.58 170.4-23.58L170.4-23.58 170.09-23.58Q169.5-23.58 169.12-23.2L169.12-23.2Q168.73-22.81 168.73-22.28L168.73-22.28Q168.73-21.75 169.12-21.36L169.12-21.36Q169.5-20.98 170.02-20.98ZM168.73-15.58L168.73-15.58 168.73-15.45Q168.73-14.81 169.17-14.39L169.17-14.39Q169.61-13.95 170.2-13.95L170.2-13.95Q170.82-13.95 171.25-14.39L171.25-14.39Q171.69-14.81 171.69-15.45L171.69-15.45 171.69-15.58Q171.69-16.22 171.25-16.66L171.25-16.66Q170.82-17.09 170.2-17.09L170.2-17.09Q169.61-17.09 169.17-16.66L169.17-16.66Q168.73-16.22 168.73-15.58ZM149.57-26.21L149.57-26.21 149.57-21.09Q149.57-20.13 150.31-20.13L150.31-20.13Q150.45-20.13 150.6-20.15L150.6-20.15Q150.8-20.19 150.91-20.19L150.91-20.19Q151.63-20.19 151.63-19.23L151.63-19.23 151.63-17.38Q151.63-16.06 150.6-15.6L150.6-15.6Q149.57-15.16 149.57-13.84L149.57-13.84 149.57 2.68Q149.57 4.5 147.74 4.5L147.74 4.5 138.36 4.5Q136.52 4.5 136.52 2.81L136.52 2.81 136.52 2Q136.52 0.31 138.1 0.31L138.1 0.31 138.38 0.31Q139.97 0.31 139.97-1.54L139.97-1.54 139.97-9.87Q139.97-11.54 138.58-11.54L138.58-11.54Q138.34-11.54 138.16-11.47L138.16-11.47 137.99-11.43Q137.75-11.34 137.5-11.34L137.5-11.34Q136.34-11.34 136.34-12.77L136.34-12.77 136.34-13.97Q136.34-15.56 137.7-16L137.7-16 138.67-16.3Q139.97-16.72 139.97-18.15L139.97-18.15 139.97-25.55Q139.97-27.38 138.34-27.38L138.34-27.38 137.88-27.38Q136.27-27.38 136.27-29.09L136.27-29.09 136.27-29.88Q136.27-31.57 137.88-31.57L137.88-31.57 138.58-31.57Q139.83-31.57 139.97-32.72L139.97-32.72Q140.1-33.86 141.35-33.86L141.35-33.86 148.18-33.86Q149.57-33.86 149.57-32.72L149.57-32.72 149.57-32.61Q149.57-31.68 150.53-31.57L150.53-31.57Q151.48-31.49 151.48-30.41L151.48-30.41 151.48-28.56Q151.48-27.49 150.53-27.38L150.53-27.38Q149.57-27.27 149.57-26.21Z" transform="translate(-1.5199999809265137, 33.900001525878906)"></path></g> <!----> <!----> <!----> <!----> <!----> <!----> <!----></g></g> <g data-gra="path-slogan" fill-rule="" class="tp-slogan iconsvg-slogansvg" fill="#0b56a6" transform="translate(32.93499755859375,44.43000030517578)"><!----> <!----> <g transform="scale(1, 1)"><g transform="scale(1)"><path d="M0.89-8.58L2.06-8.58L2.06-1.03L6.42-1.03L6.42 0L0.89 0L0.89-8.58ZM13.22-3.19L13.22-8.58L14.39-8.58L14.39-3.05Q14.25 0.05 10.88 0.14L10.88 0.14Q7.73 0.05 7.59-2.86L7.59-2.86L7.59-8.58L8.77-8.58L8.77-3.19Q8.81-0.84 10.92-0.80L10.92-0.80Q13.22-0.84 13.22-3.19L13.22-3.19ZM22.97-4.27L22.97-4.27Q22.78-7.64 19.97-7.83L19.97-7.83Q17.11-7.69 16.97-4.27L16.97-4.27Q17.11-0.94 19.97-0.80L19.97-0.80Q22.78-0.98 22.97-4.27ZM24.14-4.27L24.14-4.27Q23.86 0 19.97 0.14L19.97 0.14Q16.03 0 15.75-4.27L15.75-4.27Q15.98-8.72 19.97-8.81L19.97-8.81Q23.86-8.67 24.14-4.27ZM32.44-8.58L29.20-3.47L29.20 0L28.03 0L28.03-3.47L24.80-8.58L26.16-8.58L28.59-4.45L31.08-8.58L32.44-8.58ZM39.14 0L38.30-2.48L34.83-2.48L33.94 0L32.77 0L36-8.58L37.31-8.58L40.41 0L39.14 0ZM36.56-7.31L35.20-3.52L37.88-3.52L36.61-7.31L36.56-7.31ZM42.84-8.58L47.16-1.64L47.16-8.58L48.28-8.58L48.28 0L46.97 0L42.61-6.94L42.56-6.94L42.56 0L41.44 0L41.44-8.58L42.84-8.58ZM56.48-3.61L53.86-3.61L53.86-4.59L57.61-4.59L57.61 0L56.86 0L56.58-1.08Q55.59 0.09 53.77 0.14L53.77 0.14Q52.03 0.14 51.09-0.75L51.09-0.75Q49.69-2.06 49.73-4.36L49.73-4.36Q50.06-8.63 53.81-8.81L53.81-8.81Q57-8.63 57.47-6L57.47-6L56.34-6Q55.88-7.78 53.77-7.83L53.77-7.83Q51.09-7.64 50.95-4.31L50.95-4.31Q50.95-0.75 53.81-0.75L53.81-0.75Q54.84-0.75 55.59-1.31L55.59-1.31Q56.53-2.06 56.48-3.61L56.48-3.61ZM69-6.09L69-6.09L67.92-6.09Q67.83-7.73 65.77-7.83L65.77-7.83Q63.84-7.78 63.84-6.33L63.84-6.33Q63.84-5.39 64.88-5.25L64.88-5.25L67.31-4.69Q69.23-4.22 69.23-2.34L69.23-2.34Q69.19 0.05 65.86 0.14L65.86 0.14Q64.03 0.14 63.28-0.61L63.28-0.61Q62.34-1.31 62.39-2.77L62.39-2.77L63.52-2.77Q63.56-0.80 65.86-0.75L65.86-0.75Q68.11-0.80 68.16-2.20L68.16-2.20Q68.34-3.38 66.28-3.75L66.28-3.75L64.50-4.13Q62.67-4.64 62.67-6.19L62.67-6.19Q62.81-8.72 65.67-8.81L65.67-8.81Q68.91-8.81 69-6.09ZM71.86-5.06L76.36-5.06L76.36-8.58L77.53-8.58L77.53 0L76.36 0L76.36-3.98L71.86-3.98L71.86 0L70.69 0L70.69-8.58L71.86-8.58L71.86-5.06ZM84.98-3.19L84.98-8.58L86.16-8.58L86.16-3.05Q86.02 0.05 82.64 0.14L82.64 0.14Q79.50 0.05 79.36-2.86L79.36-2.86L79.36-8.58L80.53-8.58L80.53-3.19Q80.58-0.84 82.69-0.80L82.69-0.80Q84.98-0.84 84.98-3.19L84.98-3.19ZM89.34-8.58L93.66-1.64L93.66-8.58L94.78-8.58L94.78 0L93.47 0L89.11-6.94L89.06-6.94L89.06 0L87.94 0L87.94-8.58L89.34-8.58ZM95.86-1.92L95.86-2.77L96.94-2.77L96.94-2.16Q96.94-0.75 98.25-0.75L98.25-0.75Q99.61-0.75 99.61-2.25L99.61-2.25L99.61-8.58L100.78-8.58L100.78-2.30Q100.73 0.09 98.30 0.14L98.30 0.14Q96 0.09 95.86-1.92L95.86-1.92ZM102.75-8.58L103.92-8.58L103.92 0L102.75 0L102.75-8.58ZM107.20-1.03L112.36-1.03L112.36 0L106.03 0L106.03-8.58L112.27-8.58L112.27-7.59L107.20-7.59L107.20-4.92L111.89-4.92L111.89-3.89L107.20-3.89L107.20-1.03Z" transform="translate(-0.890625, 8.8125)"></path></g></g></g></g></g><defs v-gra="od"></defs></svg>